<?xml version="1.0" encoding="UTF-8" standalone="no"?>
<!-- Created with Inkscape (http://www.inkscape.org/) -->

<svg
   width="200"
   height="200"
   viewBox="0 0 52.916665 52.916666"
   version="1.1"
   id="svg1"
   inkscape:version="1.3.2 (091e20e, 2023-11-25, custom)"
   sodipodi:docname="logo.svg"
   xmlns:inkscape="http://www.inkscape.org/namespaces/inkscape"
   xmlns:sodipodi="http://sodipodi.sourceforge.net/DTD/sodipodi-0.dtd"
   xmlns:xlink="http://www.w3.org/1999/xlink"
   xmlns="http://www.w3.org/2000/svg"
   xmlns:svg="http://www.w3.org/2000/svg">
  <sodipodi:namedview
     id="namedview1"
     pagecolor="#505050"
     bordercolor="#eeeeee"
     borderopacity="1"
     inkscape:showpageshadow="0"
     inkscape:pageopacity="0"
     inkscape:pagecheckerboard="0"
     inkscape:deskcolor="#505050"
     inkscape:document-units="mm"
     inkscape:zoom="1.9578168"
     inkscape:cx="9.449301"
     inkscape:cy="93.72685"
     inkscape:window-width="1920"
     inkscape:window-height="991"
     inkscape:window-x="-9"
     inkscape:window-y="-9"
     inkscape:window-maximized="1"
     inkscape:current-layer="layer1" />
  <defs
     id="defs1">
    <linearGradient
       id="linearGradient3"
       inkscape:collect="always">
      <stop
         style="stop-color:#ff216c;stop-opacity:1;"
         offset="0"
         id="stop3" />
      <stop
         style="stop-color:#7904ff;stop-opacity:1;"
         offset="0.86478877"
         id="stop10" />
      <stop
         style="stop-color:#ff00bf;stop-opacity:1;"
         offset="1"
         id="stop4" />
    </linearGradient>
    <linearGradient
       inkscape:collect="always"
       xlink:href="#linearGradient3"
       id="linearGradient4"
       x1="12.973638"
       y1="12.63578"
       x2="37.569481"
       y2="55.74609"
       gradientUnits="userSpaceOnUse" />
  </defs>
  <g
     inkscape:label="Layer 1"
     inkscape:groupmode="layer"
     id="layer1">
    <ellipse
       style="fill:url(#linearGradient4);fill-opacity:1;stroke-width:0.290184"
       id="path2"
       cx="27.366262"
       cy="27.095978"
       rx="23.987709"
       ry="24.257996" />
    <path
       d="M 12.774252,26.532883 24.739239,10.154021 v 16.378862 z m 4.571338,-2.243682 h 5.008602 v -6.992798 z m 10.732714,2.243682 q 0.755268,-2.243682 1.09315,-4.506056 0.337882,-2.262377 0.337882,-4.84261 0,-2.468047 -0.337882,-4.805212 -0.337882,-2.337166 -1.09315,-4.4686633 1.868289,0.710498 4.014833,2.4867463 2.146542,1.776245 4.01483,4.281689 1.868287,2.50544 3.140311,5.553104 1.272028,3.047667 1.391279,6.301002 z m 2.981311,-2.243682 h 6.956391 q -0.675764,-3.253333 -2.484425,-6.282299 -1.808661,-3.028969 -3.955206,-5.010886 0.198767,1.121839 0.258381,2.206285 0.05961,1.084445 0.05961,1.981916 0,1.720155 -0.258381,3.702072 -0.258381,1.981917 -0.576387,3.402912 z m -9.102931,10.620086 q -1.351528,0 -2.583801,-0.691802 -1.232274,-0.691802 -2.186294,-1.73885 -0.556512,0.523523 -1.33165,1.028352 -0.775141,0.504829 -1.490655,0.76659 -1.152773,-0.673103 -2.146543,-2.000615 -0.993772,-1.327509 -1.311777,-2.748507 h 31.64163 q -0.318005,1.420998 -1.311775,2.748507 -0.993771,1.327512 -2.146544,2.000615 -0.715515,-0.26175 -1.490652,-0.76659 -0.775141,-0.504829 -1.331654,-1.028352 -0.954019,1.047048 -2.186294,1.73885 -1.232272,0.691802 -2.583801,0.691802 -1.351527,0 -2.583801,-0.691802 -1.232273,-0.691802 -2.186292,-1.73885 -0.954019,1.047048 -2.186297,1.73885 -1.232273,0.691802 -2.5838,0.691802 z m -11.13022,5.833565 v -2.243679 h 1.590028 q 1.272029,0 2.444675,-0.392643 1.172649,-0.392647 2.325422,-1.439695 1.152774,1.047048 2.345297,1.439695 1.192523,0.392643 2.424798,0.392643 1.272026,0 2.444673,-0.392643 1.17265,-0.392647 2.325424,-1.439695 1.152772,1.047048 2.345295,1.439695 1.192525,0.392643 2.424798,0.392643 1.272024,0 2.444674,-0.392643 1.172648,-0.392647 2.325421,-1.439695 1.152772,1.047048 2.325423,1.439695 1.172648,0.392643 2.444673,0.392643 h 1.590033 v 2.243679 h -1.590033 q -1.152773,0 -2.365174,-0.317854 -1.212396,-0.317855 -2.404922,-1.177933 -1.192524,0.860078 -2.404922,1.177933 -1.212399,0.317854 -2.365173,0.317854 -1.152772,0 -2.365174,-0.317854 -1.212396,-0.317855 -2.404919,-1.177933 -1.192527,0.860078 -2.404924,1.177933 -1.2124,0.317854 -2.365173,0.317854 -1.152773,0 -2.36517,-0.317854 -1.2124,-0.317855 -2.404925,-1.177933 -1.192523,0.860078 -2.404923,1.177933 -1.212399,0.317854 -2.365174,0.317854 z M 22.354192,24.289201 Z m 8.705423,0 z"
       id="path1"
       style="fill:#ffffff;fill-opacity:1;stroke-width:0.0385548" />
    <g
       inkscape:groupmode="layer"
       id="layer2"
       inkscape:label="blue_line" />
  </g>
</svg>
