<?xml version="1.0" encoding="utf-8"?>
<!-- Generator: Adobe Illustrator 19.2.1, SVG Export Plug-In . SVG Version: 6.00 Build 0)  -->
<svg version="1.1" id="layer" xmlns="http://www.w3.org/2000/svg" xmlns:xlink="http://www.w3.org/1999/xlink" x="0px" y="0px"
	 viewBox="0 0 652 652" style="enable-background:new 0 0 652 652;" xml:space="preserve">
<style type="text/css">
	.st0{fill:#4A4A4A;}
	.st1{fill:#37AB2E;}
	.st2{fill:#FFFFFF;}
</style>
<path class="st0" d="M199.4,333.7c-1.5-3.6-2.3-7.5-2.3-11.8c0-4.2,0.8-8.1,2.3-11.8c1.5-3.6,3.6-6.7,6.2-9.2
	c2.6-2.5,5.7-4.4,9.3-5.9c3.6-1.4,7.4-2.1,11.5-2.1c8,0,14.6,2.9,19.7,8.7c0.7,0.9,1.1,1.9,1.1,2.9c0,1.3-0.5,2.4-1.4,3.3
	s-2.1,1.3-3.4,1.3c-1.4,0-2.6-0.5-3.6-1.6c-1.6-1.8-3.5-3.3-5.7-4.3s-4.4-1.6-6.7-1.6c-5.5,0-10.1,1.9-13.7,5.7
	c-3.6,3.8-5.4,8.6-5.4,14.4c0,5.8,1.8,10.6,5.4,14.4c3.6,3.8,8.2,5.7,13.6,5.7c2.3,0,4.6-0.5,6.8-1.5c2.2-1,4-2.4,5.6-4.3
	c1.1-1.1,2.3-1.6,3.7-1.6c1.3,0,2.4,0.4,3.3,1.3s1.3,2,1.3,3.2c0,1.1-0.3,2.1-1,2.9c-5.1,5.8-11.6,8.7-19.7,8.7
	c-4.1,0-7.9-0.7-11.5-2.1c-3.6-1.4-6.7-3.4-9.3-5.9C202.9,340.4,200.9,337.3,199.4,333.7z M255.4,299c0-1.5,0.4-2.8,1.2-3.8
	c0.8-1.1,2-1.6,3.5-1.6c1.5,0,2.8,0.5,3.9,1.6c1,1.1,1.6,2.3,1.6,3.8c0,1.6-0.5,2.9-1.6,3.9c-1,1.1-2.3,1.6-3.9,1.6
	c-1.5,0-2.7-0.5-3.5-1.6C255.8,301.8,255.4,300.5,255.4,299z M255.7,345.9v-32.6c0-1.2,0.4-2.2,1.3-3.1c0.9-0.8,2-1.3,3.3-1.3
	c1.2,0,2.2,0.4,3,1.3c0.9,0.9,1.3,1.9,1.3,3v32.6c0,1.2-0.4,2.2-1.3,3.1s-1.9,1.3-3.2,1.3c-1.3,0-2.3-0.4-3.2-1.3
	S255.7,347.1,255.7,345.9z M271.3,313.3c0-1.1,0.4-2,1.1-2.7c0.8-0.8,1.7-1.2,2.7-1.2h3.4v-7c0-1.2,0.4-2.3,1.3-3.1s2-1.3,3.3-1.3
	c1.2,0,2.2,0.4,3.1,1.3s1.3,1.9,1.3,3.1v7h4.9c1,0,1.9,0.4,2.7,1.2c0.7,0.8,1.1,1.8,1.1,2.9c0,1.1-0.4,2-1.1,2.7
	c-0.7,0.8-1.6,1.2-2.7,1.2h-4.9v20.7c0,1.5,0.4,2.7,1.1,3.5c0.7,0.8,1.7,1.3,2.8,1.3c0.2,0,0.5,0,0.9-0.1s0.7-0.1,0.9-0.1
	c1.2,0,2.1,0.4,2.8,1.1s1.1,1.6,1.1,2.8c0,2.9-2.7,4.4-8.1,4.4c-3.4,0-6-0.9-7.8-2.7c-1.8-1.8-2.7-4.4-2.7-7.8v-23h-3.4
	c-1.1,0-2-0.4-2.7-1.2C271.6,315.4,271.3,314.5,271.3,313.3z M299.5,313.3c0-1.1,0.4-2.2,1.3-3.1c0.8-0.9,1.9-1.3,3.3-1.3
	c0.9,0,1.7,0.3,2.5,0.8s1.3,1.2,1.7,2.1l10.7,27.6l10.7-27.6c0.3-0.9,0.8-1.6,1.6-2.1c0.8-0.5,1.7-0.8,2.7-0.8
	c1.3,0,2.3,0.4,3.1,1.3c0.8,0.9,1.3,1.9,1.3,3c0,0.7-0.1,1.2-0.3,1.7L320.8,357c-2.5,6.1-6.9,9.2-13.1,9.2c-1.7,0-3.1-0.3-4.2-1
	c-1.1-0.7-1.7-1.7-1.7-3c0-1.1,0.4-2,1.2-2.8s1.8-1.2,3-1.2c1.2,0,2.1-0.1,2.8-0.2c0.7-0.1,1.4-0.5,2-1s1.1-1.2,1.6-2.1l2-4.5
	l-14.5-35.5C299.6,314.4,299.5,313.9,299.5,313.3z M345.7,345.9v-32.6c0-1.2,0.4-2.2,1.3-3.1c0.9-0.8,2-1.3,3.3-1.3
	c1.2,0,2.2,0.4,3,1.3s1.3,1.9,1.3,3v1.7c1-1.5,2.8-3,5.3-4.4c2.5-1.4,5.1-2.1,7.9-2.1c2.9,0,5.3,0.7,7.1,2c1.9,1.3,3.1,3.2,3.8,5.5
	c1.3-2,3.2-3.8,5.7-5.3s5.2-2.2,8.1-2.2c3.7,0,6.6,1,8.6,3.1c2,2,3,5.1,3,9.2v25.3c0,1.2-0.4,2.2-1.3,3.1s-2,1.3-3.2,1.3
	c-1.2,0-2.2-0.4-3.1-1.3s-1.3-1.9-1.3-3.1v-22.4c0-4.8-2.2-7.2-6.6-7.2c-1.8,0-3.6,0.5-5.3,1.6c-1.7,1-3,2.3-4,3.7v24.3
	c0,1.2-0.4,2.2-1.3,3.1c-0.9,0.9-1.9,1.3-3.2,1.3c-1.2,0-2.3-0.4-3.2-1.3c-0.9-0.9-1.3-1.9-1.3-3.1v-22.4c0-2.2-0.5-4-1.6-5.3
	s-2.7-1.9-5-1.9c-1.8,0-3.5,0.5-5.2,1.6s-3,2.3-4,3.7v24.2c0,1.2-0.4,2.2-1.3,3.1c-0.9,0.9-1.9,1.3-3.2,1.3s-2.3-0.4-3.2-1.3
	S345.7,347.1,345.7,345.9z M413.1,337.4c0-2.2,0.4-4.2,1.3-5.9c0.8-1.7,1.9-3.1,3.3-4.1c1.4-1,2.9-1.8,4.5-2.3
	c1.6-0.5,3.2-0.8,5-0.8c2.7,0,5.2,0.4,7.5,1.3c2.3,0.9,4.1,2.2,5.5,3.9v-5.9c0-2.2-0.9-3.9-2.6-5.2c-1.7-1.3-4-1.9-6.8-1.9
	c-3.7,0-6.9,0.9-9.6,2.7c-0.6,0.4-1.2,0.5-1.8,0.5c-0.9,0-1.7-0.3-2.4-1c-0.7-0.7-1.1-1.5-1.1-2.5c0-0.7,0.2-1.4,0.7-1.9
	c1.5-1.9,3.7-3.3,6.7-4.2c3-1,6-1.5,8.9-1.5c2.3,0,4.5,0.3,6.4,0.8c2,0.5,3.7,1.3,5.3,2.5c1.6,1.1,2.8,2.6,3.8,4.6
	c0.9,1.9,1.4,4.2,1.4,6.8v22.8c0,1.2-0.4,2.2-1.3,3.1c-0.9,0.9-1.9,1.3-3.1,1.3h-0.5c-0.8,0-1.7-0.3-2.6-1s-1.4-1.7-1.4-3.1v-0.7
	c-1.5,1.7-3.3,3-5.6,4c-2.3,0.9-4.7,1.4-7.4,1.4c-1.7,0-3.3-0.3-5-0.9c-1.6-0.6-3.1-1.4-4.5-2.5c-1.4-1.1-2.5-2.5-3.3-4.2
	C413.5,341.5,413.1,339.6,413.1,337.4z M422,337.6c0,2.1,0.8,3.8,2.4,5.1c1.6,1.3,3.6,1.9,6.1,1.9c2,0,3.8-0.3,5.5-1
	c1.7-0.7,3-1.7,4-3v-6c-1-1.3-2.3-2.3-4-3c-1.7-0.7-3.5-1-5.5-1c-2.5,0-4.5,0.6-6.1,1.9C422.8,333.7,422,335.4,422,337.6z
	 M460.5,361.4v-48.1c0-1.2,0.4-2.2,1.3-3.1c0.9-0.8,2-1.3,3.3-1.3c1.2,0,2.2,0.4,3,1.3s1.3,1.9,1.3,3v1.6c1.5-2,3.4-3.6,5.7-4.7
	s4.7-1.7,7.2-1.7c5.3,0,9.7,1.9,13,5.7c3.3,3.8,4.9,8.9,4.9,15.5c0,6.6-1.7,11.8-5,15.6c-3.3,3.8-7.6,5.7-12.9,5.7
	c-2.5,0-4.9-0.6-7.1-1.7s-4.1-2.7-5.8-4.9v17.1c0,1.2-0.4,2.2-1.3,3c-0.9,0.9-1.9,1.3-3.2,1.3c-1.2,0-2.3-0.4-3.1-1.3
	C460.9,363.6,460.5,362.6,460.5,361.4z M469.4,337.5c1,1.5,2.4,2.7,4.4,3.8c1.9,1,3.9,1.6,5.8,1.6c3.4,0,6.1-1.2,8.2-3.7
	c2.1-2.5,3.1-5.7,3.1-9.6c0-3.9-1-7-3.1-9.5c-2.1-2.5-4.8-3.7-8.2-3.7c-2,0-3.9,0.5-5.8,1.6c-1.9,1-3.4,2.3-4.4,3.8V337.5z
	 M508.9,361.4v-48.1c0-1.2,0.4-2.2,1.3-3.1s2-1.3,3.3-1.3c1.2,0,2.2,0.4,3,1.3s1.3,1.9,1.3,3v1.6c1.5-2,3.4-3.6,5.7-4.7
	s4.7-1.7,7.2-1.7c5.3,0,9.7,1.9,13,5.7c3.3,3.8,4.9,8.9,4.9,15.5c0,6.6-1.7,11.8-5,15.6c-3.3,3.8-7.6,5.7-12.9,5.7
	c-2.5,0-4.9-0.6-7.1-1.7s-4.1-2.7-5.8-4.9v17.1c0,1.2-0.4,2.2-1.3,3c-0.9,0.9-1.9,1.3-3.2,1.3c-1.2,0-2.3-0.4-3.1-1.3
	S508.9,362.6,508.9,361.4z M517.9,337.5c1,1.5,2.4,2.7,4.4,3.8c1.9,1,3.9,1.6,5.8,1.6c3.4,0,6.1-1.2,8.2-3.7
	c2.1-2.5,3.1-5.7,3.1-9.6c0-3.9-1-7-3.1-9.5c-2.1-2.5-4.8-3.7-8.2-3.7c-2,0-3.9,0.5-5.8,1.6c-1.9,1-3.4,2.3-4.4,3.8V337.5z
	 M555.2,329.5c0-3.9,0.9-7.4,2.6-10.6c1.7-3.2,4.2-5.8,7.3-7.7c3.2-1.9,6.7-2.8,10.6-2.8c4.7,0,8.6,1.3,12,3.9s5.6,6.1,6.8,10.5
	c0.7,2.3,1,4.1,1,5.4c0,1.2-0.4,2.2-1.3,3.1c-0.9,0.9-2,1.3-3.2,1.3h-26.7c0.3,3,1.6,5.4,3.9,7.4c2.3,2,5.2,3,8.8,3
	c3.2,0,6.3-0.7,9.1-2c0.6-0.3,1.2-0.4,1.8-0.4c1,0,1.9,0.4,2.7,1.1c0.8,0.7,1.2,1.6,1.2,2.6c0,1.1-0.6,2.1-1.7,3
	c-1.1,0.9-2.5,1.6-4.2,2.1s-3.4,0.9-5,1.2c-1.7,0.3-3.2,0.4-4.6,0.4c-6.1,0-11.1-2-15.1-5.9C557.2,341,555.2,335.9,555.2,329.5z
	 M564.1,326.3h22.4c-0.1-1.2-0.3-2.3-0.7-3.4c-0.4-1.1-1.1-2.2-1.9-3.2c-0.9-1-2-1.8-3.5-2.4c-1.5-0.6-3.1-0.9-5-0.9c-3.4,0-6,1-8,3
	C565.5,321.4,564.4,323.7,564.1,326.3z M603.9,345.9v-32.6c0-1.2,0.4-2.2,1.3-3.1c0.9-0.8,2-1.3,3.3-1.3c1.2,0,2.2,0.4,3,1.3
	c0.9,0.9,1.3,1.9,1.3,3.1v2.2c3.2-4.4,6.4-6.6,9.6-6.6c1.2,0,2.1,0.4,2.8,1.1c0.7,0.7,1.1,1.7,1.1,2.9c0,1.4-0.4,2.5-1.2,3.3
	c-0.8,0.8-1.8,1.3-3.1,1.5c-4.1,0.4-7.2,2-9.2,4.9v23.3c0,1.2-0.4,2.2-1.3,3.1c-0.9,0.9-1.9,1.3-3.1,1.3h-0.2
	c-1.2,0-2.2-0.4-3.1-1.3S603.9,347.1,603.9,345.9z"/>
<circle id="circle" class="st1" cx="99.6" cy="325" r="73.1"/>
<path class="st2" d="M134.7,367.5C120,380.2,99.4,384.2,80.9,378c-18.5-6.2-32.2-21.7-35.8-40.5c-0.4-2.2-2.6-3.7-4.9-3.3
	c-2.3,0.4-3.8,2.5-3.3,4.7c4.1,21.7,19.9,39.6,41.3,46.7c4.9,1.6,9.9,2.7,14.9,3.1c17,1.4,34.1-3.9,47.2-15.2c1.7-1.5,1.9-4,0.4-5.7
	C139.1,366.2,136.4,366,134.7,367.5 M64,329.1c3.6,0,6.5-2.9,6.5-6.5c0-3.6-2.9-6.5-6.5-6.5s-6.5,2.9-6.5,6.5
	C57.5,326.2,60.4,329.1,64,329.1L64,329.1z M134.3,329.1c3.6,0,6.5-2.9,6.5-6.5c0-3.6-2.9-6.5-6.5-6.5c-3.6,0-6.5,2.9-6.5,6.5
	C127.8,326.2,130.7,329.1,134.3,329.1L134.3,329.1z M103.3,327.9H83.6c-2.7,0-4.9-2.2-4.9-5c0-2.8,2.2-5,4.9-5l19.7,0l-6.1-6.3
	c-1.9-1.9-1.9-5.1,0-7c1.9-2,5-2,6.9,0l14.3,14.8c0.9,0.9,1.4,2.2,1.4,3.5c0,1.3-0.5,2.6-1.4,3.5l-14.3,14.8c-0.9,1-2.2,1.5-3.5,1.5
	c-1.3,0-2.5-0.5-3.5-1.5c-1.9-2-1.9-5.1,0-7L103.3,327.9z"/>
</svg>
