<?xml version="1.0" encoding="utf-8"?>
<!-- Generator: Adobe Illustrator 23.0.1, SVG Export Plug-In . SVG Version: 6.00 Build 0)  -->
<svg version="1.1" id="Livello_1" xmlns="http://www.w3.org/2000/svg" xmlns:xlink="http://www.w3.org/1999/xlink" x="0px" y="0px"
	 viewBox="0 0 788.6 640.807" enable-background="new 0 0 788.6 640.807" xml:space="preserve">
<g>
	<path fill="#76BC21" d="M601.657,320.38c0,114.163-92.607,206.742-206.77,206.742c-114.192,0-206.723-92.578-206.723-206.742
		c0-114.145,92.532-206.695,206.723-206.695C509.05,113.685,601.657,206.235,601.657,320.38 M394.887,0
		C217.91,0,74.46,143.45,74.46,320.38c0,176.967,143.45,320.427,320.427,320.427c176.939,0,320.38-143.459,320.38-320.427
		C715.267,143.45,571.826,0,394.887,0"/>
	<rect y="255.7" fill="#000F9F" width="788.6" height="129.613"/>
	<g>
		<path id="T" fill="#FFFFFF" d="M194.6,325.803v-27l9.3-0.2l9.3-0.2l0.2-5.9l0.2-5.9H188h-25.6v6v6h9.5h9.5v27v27h6.6h6.6V325.803z
			"/>
		<path id="R" fill="#FFFFFF" d="M234.2,339.503v-13.2h2.7h2.7l8.9,13c4.9,7.1,9.2,13.1,9.5,13.2s3.9,0.2,7.9,0.1l7.3-0.2
			l-10.1-14.2c-5.5-7.8-10.1-14.3-10.1-14.4s1.1-0.9,2.5-1.7c3.6-2.1,6.1-4.8,7.8-8.4c1.2-2.6,1.5-4,1.5-7.9c0-4.2-0.2-5.1-2-8.6
			c-2.3-4.4-5-6.9-10.1-8.9c-3.1-1.2-4.3-1.3-17.5-1.5l-14.2-0.2v33.1v33.1h6.6h6.6L234.2,339.503z M234.2,306.603v-8.4h4.3
			c6.1,0,9.1,0.9,11.2,3.2c3.2,3.6,1.9,9.8-2.4,12.1c-1.3,0.7-3.7,1.1-7.5,1.2l-5.6,0.2V306.603z"/>
		<path id="A" fill="#FFFFFF" d="M289.8,349.703c0.6-1.7,1.7-4.5,2.4-6.3l1.2-3.3l13.3,0.2l13.3,0.2l2.3,6.2l2.3,6.2h7.3h7.3
			l-2.8-7.3c-1.6-4-7.3-18.8-12.8-32.9l-9.9-25.6h-7h-7l-12.7,32.6c-6.9,18-12.6,32.8-12.6,32.9s3.2,0.1,7.1,0.1h7.1L289.8,349.703z
			 M299.8,323.303c1-2.6,2.8-7.6,4.1-11.2s2.5-6.5,2.7-6.5s2.1,4.7,4.3,10.5s4,10.8,4.2,11.2c0.2,0.6-1.7,0.7-8.4,0.7H298
			L299.8,323.303z"/>
		<path id="M" fill="#FFFFFF" d="M358.4,330.103l0.2-22.7l10,12.3c5.5,6.8,10.1,12.3,10.3,12.3c0.2,0,4.8-5.6,10.1-12.4l9.8-12.4
			l0.2,22.7l0.2,22.7h6.6h6.6v-33v-33h-6.6h-6.6l-10.2,13c-7.9,10.1-10.3,12.8-10.8,12.2c-0.3-0.4-5-6.3-10.3-13l-9.7-12.2h-6.5
			h-6.5v33v33h6.6h6.6L358.4,330.103z"/>
		<path id="L" fill="#FFFFFF" d="M463.8,346.603l-0.2-6.2l-13.6-0.2l-13.6-0.2v-26.7v-26.7h-6.6h-6.6v33v33h20.4H464L463.8,346.603z
			"/>
		<path id="I" fill="#FFFFFF" d="M484.6,319.703v-33H478h-6.6v33v33h6.6h6.6V319.703z"/>
		<path id="N" fill="#FFFFFF" d="M510,330.603l0.2-22.1l17.1,22.1l17.1,22.1h6.6h6.6v-33v-33H551h-6.6l-0.2,22.3l-0.2,22.3
			l-17.1-22.3l-17.1-22.3h-6.6h-6.6v33v33h6.6h6.6L510,330.603z"/>
		<path id="K" fill="#FFFFFF" d="M581.8,338.703l0.2-14l12,14l12,14h8.5c5.3,0,8.5-0.2,8.4-0.6c-0.1-0.3-7.1-8.3-15.6-17.9
			l-15.4-17.2l15.1-15.2l15.1-15.2h-8.4h-8.4l-11.8,11.9l-11.8,11.9v-11.9v-11.9h-6.6h-6.6v33v33h6.6h6.6L581.8,338.703z"/>
	</g>
</g>
</svg>
